<svg id="Capa_1" enable-background="new 0 0 512 512" height="512" viewBox="0 0 512 512" width="512" xmlns="http://www.w3.org/2000/svg"><path d="m512 256.317c-.105 86.4-43.01 162.77-108.66 209.054h-.01l-36.144 11.44c-72.356 22.901-150.017 22.904-222.375.009l-36.121-11.43c-65.74-46.33-108.69-122.85-108.69-209.39 0-141.38 114.62-256 255.999-256 141.153 0 256.172 115.163 256.001 256.317z" fill="#374c81"/><path d="m512 256c0 86.52-42.93 163.03-108.66 209.37l-.02.01-36.137 11.436c-72.354 22.897-150.013 22.898-222.367.003l-36.116-11.429h-.01c-65.74-46.34-108.69-122.86-108.69-209.39 0-46.22 12.25-89.57 33.68-127 44.12 77.07 127.16 129 222.32 129s178.21-51.93 222.32-129c21.43 37.43 33.68 80.78 33.68 127z" fill="#234177"/><path d="m75.69 271.37 14.55 90.78 13.88 86.76c.92 5.76 2.47 11.28 4.57 16.48 41.66 29.36 92.47 46.61 147.31 46.61 54.85 0 47.683-196.665 47.683-196.665l-47.683-43.965zm106.56 194.18h-4.18c-14.04 0-25.86-10.09-28.08-23.96l-5.14-32.16h37.4zm0-102.57h-44.85l-.13-.83-7.1-44.33h52.08zm101.05 102.57h-27.3-27.3v-56.12h27.3 27.3zm0-102.57h-27.3-27.3v-45.16h27.3 27.3z" fill="#ffe400"/><path d="m362.038 441.586c-2.217 13.877-14.038 23.964-28.108 23.964h-4.176v-56.119h37.423zm12.689-79.44-.129.835h-44.844v-45.165h52.071zm-118.727-90.776v46.45h27.3v45.16h-27.3v46.45h27.3v56.12h-27.3v46.45c54.85 0 105.67-17.26 147.34-46.63 2.1-5.19 3.65-10.7 4.57-16.46l13.88-86.76 14.52-90.78z" fill="#ffce00"/><path d="m436.307 271.333-14.52 90.813h-47.06l7.099-44.362h-52.071v44.362h-46.45v-44.362h-54.61v44.362h-46.45v-44.362h-52.071l7.099 44.362h-47.028l-14.552-90.813z" fill="#ec781b"/><path d="m436.307 271.333-14.52 90.813h-47.06l7.099-44.362h-52.071v44.362h-46.45v-44.362h-27.305v-46.451z" fill="#c55733"/><path d="m175.792 104.935c-9.879 0-18.734 6.092-22.266 15.318l-65 169.776h51.06l58.472-152.726c5.977-15.612-5.549-32.368-22.266-32.368z" fill="#ec781b"/><path d="m336.208 104.935c9.879 0 18.734 6.092 22.266 15.318l65 169.776h-51.06l-58.472-152.726c-5.977-15.612 5.549-32.368 22.266-32.368z" fill="#c55733"/><path d="m464.704 294.583c0 18.407-14.906 33.312-33.312 33.312h-350.753c-18.407 0-33.344-14.905-33.344-33.312s14.937-33.344 33.344-33.344h350.753c18.406 0 33.312 14.937 33.312 33.344z" fill="#f8c706"/><path d="m464.704 294.583c0 18.407-14.906 33.312-33.312 33.312h-175.392v-66.655h175.392c18.406-.001 33.312 14.936 33.312 33.343z" fill="#eb7722"/></svg>