<?xml version="1.0" standalone="no"?>
<!DOCTYPE svg PUBLIC "-//W3C//DTD SVG 20010904//EN"
 "http://www.w3.org/TR/2001/REC-SVG-20010904/DTD/svg10.dtd">
<svg version="1.0" xmlns="http://www.w3.org/2000/svg"
 width="512.000000pt" height="512.000000pt" viewBox="0 0 512.000000 512.000000"
 preserveAspectRatio="xMidYMid meet">

<g transform="translate(0.000000,512.000000) scale(0.100000,-0.100000)"
fill="#000000" stroke="none">
<path d="M2492 4981 c-15 -15 -93 -165 -174 -332 -119 -245 -149 -317 -156
-367 -25 -182 64 -347 229 -425 l69 -32 0 -212 0 -213 -440 0 -440 0 0 143 0
143 64 27 c114 50 189 135 227 258 22 69 24 125 8 199 -15 70 -310 663 -340
684 -34 23 -90 20 -119 -6 -26 -24 -312 -600 -329 -663 -25 -93 -6 -223 46
-312 36 -61 124 -138 186 -161 l52 -20 3 -145 3 -145 -188 -4 c-165 -3 -194
-6 -234 -24 -63 -29 -116 -78 -147 -138 l-27 -51 -5 -535 -5 -535 -125 -5
c-98 -4 -135 -10 -170 -26 -56 -27 -113 -83 -142 -143 l-23 -46 -3 -792 -2
-791 -119 -4 c-102 -3 -124 -6 -147 -24 -52 -38 -56 -103 -9 -150 l24 -24
2501 0 2501 0 24 24 c47 47 43 112 -9 150 -23 18 -45 21 -147 24 l-119 4 -2
791 -3 792 -23 46 c-29 60 -86 116 -142 143 -35 16 -72 22 -170 26 l-125 5 -5
535 -5 535 -27 51 c-31 59 -84 108 -147 138 -41 19 -68 21 -233 24 l-188 4 0
144 c0 129 2 145 18 151 91 30 182 101 226 177 51 88 70 218 45 311 -17 63
-303 639 -329 663 -29 26 -85 29 -119 6 -30 -21 -325 -614 -340 -684 -16 -74
-14 -130 8 -199 38 -123 113 -208 227 -258 l64 -27 0 -143 0 -143 -440 0 -440
0 0 213 0 212 69 32 c165 78 254 243 229 425 -7 50 -37 122 -156 367 -81 167
-159 317 -174 332 -21 23 -35 29 -68 29 -33 0 -47 -6 -68 -29z m172 -503 c84
-177 96 -210 96 -255 0 -88 -35 -144 -112 -184 -75 -39 -178 -18 -240 48 -35
37 -48 73 -48 136 0 45 12 78 96 255 54 111 100 202 104 202 4 0 50 -91 104
-202z m-1079 -137 c113 -229 121 -262 82 -344 -42 -84 -110 -123 -202 -115
-40 3 -67 13 -97 34 -56 39 -79 82 -85 157 -5 62 -4 62 96 266 56 112 103 202
106 200 2 -2 47 -92 100 -198z m2156 -3 c100 -203 101 -203 96 -265 -6 -75
-29 -118 -85 -157 -30 -21 -57 -31 -97 -34 -92 -8 -160 31 -202 115 -39 82
-32 115 83 346 54 108 99 197 101 197 2 0 49 -91 104 -202z m337 -1149 c57
-20 62 -39 62 -232 l0 -174 -37 -7 c-68 -11 -194 -6 -248 9 -28 9 -79 32 -111
52 -232 142 -266 155 -434 161 -92 3 -143 0 -192 -12 -71 -16 -184 -68 -256
-118 -23 -16 -73 -44 -110 -61 -64 -31 -72 -32 -192 -32 -120 0 -128 1 -192
32 -37 17 -87 45 -110 61 -72 50 -185 102 -256 118 -49 12 -100 15 -192 12
-168 -6 -202 -19 -434 -161 -32 -20 -83 -43 -111 -52 -54 -15 -180 -20 -247
-9 l-38 7 0 176 c0 191 5 208 60 230 36 14 2997 15 3038 0z m-2093 -404 c30
-9 93 -41 142 -72 188 -118 263 -143 433 -143 170 0 245 25 433 143 118 75
174 90 307 85 120 -4 168 -22 300 -108 144 -94 253 -125 429 -118 l111 3 0
-232 0 -233 -1000 0 c-1116 0 -1039 5 -1061 -69 -9 -31 -8 -43 6 -70 33 -64
-34 -61 1275 -61 l1192 0 29 -29 29 -29 0 -191 c0 -210 6 -191 -70 -206 -50
-10 -168 -66 -236 -112 -120 -82 -183 -103 -304 -103 -111 0 -177 19 -269 76
-205 128 -284 155 -450 155 -162 1 -253 -27 -397 -119 -44 -28 -106 -64 -139
-79 -56 -26 -69 -28 -185 -28 -116 0 -129 2 -185 28 -33 15 -95 51 -139 79
-144 92 -235 120 -397 119 -166 0 -245 -27 -450 -155 -92 -57 -158 -76 -269
-76 -121 0 -184 21 -304 103 -68 46 -186 102 -236 112 -76 15 -70 -4 -70 206
l0 191 29 29 29 29 395 0 c217 0 408 3 426 6 80 16 109 108 52 165 l-29 29
-216 0 -216 0 0 233 0 232 111 -3 c172 -6 294 27 424 115 72 48 136 82 190 99
57 18 216 17 280 -1z m1 -1531 c28 -8 77 -30 108 -49 31 -19 82 -51 113 -70
110 -68 211 -95 353 -95 141 0 243 27 351 94 30 18 81 49 113 69 78 48 151 68
250 68 119 1 202 -26 311 -101 68 -47 182 -100 247 -115 81 -19 245 -19 326 0
70 17 169 64 274 132 40 25 96 54 125 64 l53 18 0 -480 0 -479 -2050 0 -2050
0 0 479 0 480 53 -18 c29 -10 85 -39 125 -64 176 -114 275 -147 437 -147 55 0
128 7 163 15 66 16 179 69 250 117 141 97 295 125 448 82z"/>
<path d="M1875 2616 c-32 -32 -40 -69 -25 -107 17 -40 47 -59 93 -59 53 0 97
43 97 95 0 82 -108 128 -165 71z"/>
<path d="M3205 2499 c-62 -36 -74 -111 -26 -160 40 -40 89 -40 133 0 63 56 32
154 -53 167 -18 2 -43 -1 -54 -7z"/>
<path d="M1708 2087 c-73 -68 -13 -188 85 -170 39 8 77 57 77 100 0 79 -104
124 -162 70z"/>
<path d="M1885 906 c-34 -34 -41 -71 -21 -113 19 -39 67 -64 109 -56 39 8 77
57 77 100 0 80 -109 125 -165 69z"/>
<path d="M4178 847 c-34 -32 -44 -77 -24 -116 20 -37 47 -53 94 -53 48 0 92
47 92 98 0 80 -104 125 -162 71z"/>
<path d="M809 601 c-21 -22 -29 -39 -29 -66 0 -72 86 -119 152 -84 32 17 51
74 38 115 -23 70 -108 88 -161 35z"/>
<path d="M3039 601 c-21 -22 -29 -39 -29 -66 0 -27 8 -44 29 -66 75 -74 201 5
161 102 -28 66 -109 81 -161 30z"/>
</g>
</svg>
