<?xml version="1.0" standalone="no"?>
<!DOCTYPE svg PUBLIC "-//W3C//DTD SVG 20010904//EN"
 "http://www.w3.org/TR/2001/REC-SVG-20010904/DTD/svg10.dtd">
<svg version="1.0" xmlns="http://www.w3.org/2000/svg"
 width="512.000000pt" height="512.000000pt" viewBox="0 0 512.000000 512.000000"
 preserveAspectRatio="xMidYMid meet">

<g transform="translate(0.000000,512.000000) scale(0.100000,-0.100000)"
fill="#000000" stroke="none">
<path d="M2975 3579 c-557 -28 -749 -69 -1058 -226 -138 -71 -356 -205 -421
-260 -35 -30 -148 -87 -236 -120 -36 -14 -141 -40 -234 -59 -389 -79 -804
-201 -878 -257 -116 -89 -157 -262 -134 -572 9 -133 18 -150 86 -184 50 -26
198 -61 253 -61 31 0 35 -4 56 -56 51 -122 183 -222 325 -247 217 -37 433 110
481 329 10 41 20 74 25 74 4 0 27 -7 50 -15 37 -13 208 -15 1305 -15 l1263 0
12 30 c17 40 23 43 68 29 37 -11 39 -13 49 -74 32 -187 171 -326 357 -358 132
-22 267 23 367 122 65 66 104 140 120 233 l12 68 70 0 c67 0 71 1 104 37 19
20 50 59 69 87 l34 51 0 138 c0 147 -9 188 -54 237 -13 14 -29 45 -35 70 l-12
45 -95 0 c-87 0 -97 2 -114 23 -40 48 -36 166 6 209 20 20 33 23 99 23 41 0
75 3 75 6 0 3 -12 31 -27 62 -34 69 -160 198 -285 292 -227 169 -466 266 -768
310 -257 37 -565 47 -935 29z m-2436 -913 c35 -32 27 -69 -25 -115 -59 -52
-133 -80 -264 -99 -174 -26 -200 -3 -102 90 109 104 207 150 309 145 43 -2 68
-9 82 -21z m389 -450 c211 -108 210 -403 -3 -514 -68 -35 -177 -37 -248 -3
-95 46 -167 159 -167 261 0 127 97 248 225 281 50 13 141 1 193 -25z m3610 0
c211 -108 210 -403 -3 -514 -68 -35 -177 -37 -248 -3 -95 46 -167 159 -167
261 0 127 97 248 225 281 50 13 141 1 193 -25z"/>
</g>
</svg>
