<?xml version="1.0" standalone="no"?>
<!DOCTYPE svg PUBLIC "-//W3C//DTD SVG 20010904//EN"
 "http://www.w3.org/TR/2001/REC-SVG-20010904/DTD/svg10.dtd">
<svg version="1.0" xmlns="http://www.w3.org/2000/svg"
 width="64.000000pt" height="64.000000pt" viewBox="0 0 64.000000 64.000000"
 preserveAspectRatio="xMidYMid meet">

<g transform="translate(0.000000,64.000000) scale(0.100000,-0.100000)"
fill="#000000" stroke="none">
<path d="M268 560 c-10 -16 -24 -20 -70 -20 l-58 0 0 -230 0 -230 180 0 180 0
0 230 0 230 -58 0 c-46 0 -60 4 -70 20 -9 15 -23 20 -52 20 -29 0 -43 -5 -52
-20z m72 -40 c0 -13 -7 -20 -20 -20 -13 0 -20 7 -20 20 0 13 7 20 20 20 13 0
20 -7 20 -20z m-80 -40 c0 -18 7 -20 60 -20 53 0 60 2 60 20 0 17 7 20 40 20
l40 0 0 -190 0 -190 -140 0 -140 0 0 190 0 190 40 0 c33 0 40 -3 40 -20z"/>
<path d="M265 395 c-25 -25 -33 -68 -16 -94 6 -9 2 -25 -10 -45 -10 -17 -19
-37 -19 -43 0 -23 37 -14 48 12 21 45 92 42 107 -5 7 -22 45 -28 45 -7 0 6 -9
26 -19 43 -12 20 -16 36 -10 45 29 47 -14 119 -71 119 -19 0 -40 -9 -55 -25z
m85 -30 c26 -32 -13 -81 -47 -59 -23 14 -28 41 -13 59 16 19 44 19 60 0z"/>
</g>
</svg>
