<?xml version="1.0" encoding="iso-8859-1"?>
<!-- Generator: Adobe Illustrator 19.0.0, SVG Export Plug-In . SVG Version: 6.00 Build 0)  -->
<svg version="1.1" id="Capa_1" xmlns="http://www.w3.org/2000/svg" xmlns:xlink="http://www.w3.org/1999/xlink" x="0px" y="0px"
	 viewBox="0 0 512 512" style="enable-background:new 0 0 512 512;" xml:space="preserve">
<polygon style="fill:#424242;" points="290.552,233.134 286.925,242.979 53.903,379.308 34.9,380.664 43.347,369.965 
	282.108,233.134 "/>
<path style="fill:#E8EDEF;" d="M485.598,350.963c-0.063-3.047-1.593-6.068-4.609-7.809l-190.56-110.02L34.9,380.664
	c0,11.634,6.206,22.384,16.282,28.201l170.403,98.382c10.977,6.338,24.501,6.337,35.478,0l209.793-121.128
	c11.605-6.701,18.755-19.083,18.755-32.484v-2.678L485.598,350.963z"/>
<path style="fill:#C8CED6;" d="M480.989,359.162L257.062,488.447c-10.977,6.337-24.501,6.337-35.478,0L34.9,380.664
	c0,11.634,6.206,22.384,16.282,28.201l170.403,98.382c10.977,6.338,24.501,6.337,35.478,0l209.793-121.128
	c11.605-6.701,18.755-19.083,18.755-32.484v-2.476C485.61,354.271,484.07,357.384,480.989,359.162z"/>
<path style="fill:#D1D1D1;" d="M485.598,350.963c0.001,0.065,0.012,0.13,0.012,0.195v-0.202L485.598,350.963z"/>
<polygon style="fill:#212938;" points="85.525,350.882 108.618,364.374 262.128,275.679 239.217,262.559 "/>
<polygon style="fill:#284363;" points="123.324,372.713 91.452,391.207 91.452,392.916 103.614,399.955 135.605,381.602 
	135.605,379.763 "/>
<polygon style="fill:#212938;" points="103.69,398.26 91.452,391.207 91.452,392.916 103.614,399.955 135.605,381.602 
	135.605,379.763 "/>
<polygon style="fill:#284363;" points="139.471,381.923 107.599,400.417 107.599,402.126 124.461,411.932 156.452,393.579 
	156.452,391.74 "/>
<polygon style="fill:#212938;" points="124.537,410.237 107.599,400.417 107.599,402.126 124.461,411.932 156.452,393.579 
	156.452,391.74 "/>
<polygon style="fill:#284363;" points="175.31,361.333 143.437,379.826 143.437,381.535 160.3,391.341 192.291,372.988 
	192.291,371.149 "/>
<polygon style="fill:#212938;" points="160.376,389.646 143.437,379.826 143.437,381.535 160.3,391.341 192.291,372.988 
	192.291,371.149 "/>
<polygon style="fill:#284363;" points="208.609,366.163 176.737,384.657 176.737,386.365 193.599,396.172 225.59,377.818 
	225.59,375.979 "/>
<polygon style="fill:#212938;" points="193.675,394.476 176.737,384.657 176.737,386.365 193.599,396.172 225.59,377.818 
	225.59,375.979 "/>
<polygon style="fill:#284363;" points="233.929,375.489 202.057,393.983 202.057,395.692 218.919,405.498 250.91,387.144 
	250.91,385.306 "/>
<polygon style="fill:#212938;" points="218.995,403.803 202.057,393.983 202.057,395.692 218.919,405.498 250.91,387.144 
	250.91,385.306 "/>
<polygon style="fill:#284363;" points="269.574,354.96 237.701,373.454 237.701,375.163 254.564,384.969 286.554,366.615 
	286.554,364.777 "/>
<polygon style="fill:#212938;" points="254.639,383.274 237.701,373.454 237.701,375.163 254.564,384.969 286.554,366.615 
	286.554,364.777 "/>
<polygon style="fill:#284363;" points="305.961,334.102 274.089,352.596 274.089,354.305 290.951,364.111 322.942,345.757 
	322.942,343.919 "/>
<polygon style="fill:#212938;" points="291.027,362.416 274.089,352.596 274.089,354.305 290.951,364.111 322.942,345.757 
	322.942,343.919 "/>
<polygon style="fill:#284363;" points="244.428,345.481 212.556,363.974 212.556,365.683 229.418,375.489 261.409,357.136 
	261.409,355.297 "/>
<polygon style="fill:#212938;" points="229.494,373.794 212.556,363.974 212.556,365.683 229.418,375.489 261.409,357.136 
	261.409,355.297 "/>
<polygon style="fill:#284363;" points="280.497,324.526 248.625,343.02 248.625,344.729 265.487,354.535 297.478,336.181 
	297.478,334.343 "/>
<polygon style="fill:#212938;" points="265.563,352.84 248.625,343.02 248.625,344.729 265.487,354.535 297.478,336.181 
	297.478,334.343 "/>
<polygon style="fill:#284363;" points="316.638,304.045 284.766,322.539 284.766,324.247 301.628,334.053 333.619,315.7 
	333.619,313.861 "/>
<polygon style="fill:#212938;" points="301.704,332.358 284.766,322.539 284.766,324.247 301.628,334.053 333.619,315.7 
	333.619,313.861 "/>
<polygon style="fill:#284363;" points="211.014,340.803 179.142,359.297 179.142,361.006 196.004,370.812 227.995,352.458 
	227.995,350.62 "/>
<polygon style="fill:#212938;" points="196.08,369.117 179.142,359.297 179.142,361.006 196.004,370.812 227.995,352.458 
	227.995,350.62 "/>
<polygon style="fill:#284363;" points="246.947,319.946 215.075,338.439 215.075,340.148 231.937,349.954 263.928,331.601 
	263.928,329.762 "/>
<polygon style="fill:#212938;" points="232.013,348.259 215.075,338.439 215.075,340.148 231.937,349.954 263.928,331.601 
	263.928,329.762 "/>
<polygon style="fill:#284363;" points="282.907,299.136 251.035,317.63 251.035,319.339 267.898,329.145 299.888,310.791 
	299.888,308.953 "/>
<polygon style="fill:#212938;" points="267.973,327.45 251.035,317.63 251.035,319.339 267.898,329.145 299.888,310.791 
	299.888,308.953 "/>
<polygon style="fill:#284363;" points="318.797,278.49 286.925,296.984 286.925,298.693 303.788,308.499 335.778,290.145 
	335.778,288.307 "/>
<polygon style="fill:#212938;" points="303.864,306.804 286.925,296.984 286.925,298.693 303.788,308.499 335.778,290.145 
	335.778,288.307 "/>
<polygon style="fill:#284363;" points="189.694,396.648 172.713,386.832 128.326,412.495 128.326,414.204 145.188,424.01 
	189.694,398.507 189.694,396.668 "/>
<polygon style="fill:#212938;" points="128.326,412.495 128.326,414.204 145.188,424.01 189.694,398.507 189.694,396.668 
	145.264,422.315 "/>
<polygon style="fill:#284363;" points="215.097,406.254 198.151,396.457 149.297,424.733 149.297,426.442 166.16,436.248 
	215.131,408.072 215.131,406.234 "/>
<polygon style="fill:#212938;" points="149.297,424.733 149.297,426.442 166.16,436.248 215.131,408.072 215.131,406.274 
	166.236,434.553 "/>
<polygon style="fill:#292929;" points="215.097,406.254 215.131,406.274 215.131,406.234 "/>
<polygon style="fill:#284363;" points="201.979,418.128 170.107,436.622 170.107,438.331 186.969,448.137 218.96,429.783 
	218.96,427.945 "/>
<polygon style="fill:#212938;" points="187.045,446.442 170.107,436.622 170.107,438.331 186.969,448.137 218.96,429.783 
	218.96,427.945 "/>
<polygon style="fill:#284363;" points="237.828,397.425 205.956,415.918 205.956,417.627 222.818,427.433 254.809,409.079 
	254.809,407.241 "/>
<polygon style="fill:#212938;" points="222.894,425.738 205.956,415.918 205.956,417.627 222.818,427.433 254.809,409.079 
	254.809,407.241 "/>
<polygon style="fill:#284363;" points="345.156,335.191 241.7,395.223 241.7,396.932 258.562,406.738 362.137,346.846 
	362.137,345.008 "/>
<polygon style="fill:#212938;" points="258.638,405.043 241.7,395.223 241.7,396.932 258.562,406.738 362.137,346.846 
	362.137,345.008 "/>
<polygon style="fill:#284363;" points="381.222,314.653 349.349,333.146 349.349,334.855 366.212,344.661 398.202,326.307 
	398.202,324.469 "/>
<polygon style="fill:#212938;" points="366.287,342.966 349.349,333.146 349.349,334.855 366.212,344.661 398.202,326.307 
	398.202,324.469 "/>
<polygon style="fill:#284363;" points="159.03,352.066 127.157,370.56 127.157,372.269 139.32,379.308 171.31,360.954 
	171.31,359.116 "/>
<polygon style="fill:#212938;" points="139.395,377.613 127.157,370.56 127.157,372.269 139.32,379.308 171.31,360.954 
	171.31,359.116 "/>
<polygon style="fill:#284363;" points="195.076,331.278 163.204,349.772 163.204,351.481 175.366,358.521 207.357,340.167 
	207.357,338.328 "/>
<polygon style="fill:#212938;" points="175.442,356.825 163.204,349.772 163.204,351.481 175.366,358.521 207.357,340.167 
	207.357,338.328 "/>
<polygon style="fill:#284363;" points="231.009,310.489 199.137,328.983 199.137,330.692 211.299,337.731 243.29,319.377 
	243.29,317.539 "/>
<polygon style="fill:#212938;" points="211.375,336.036 199.137,328.983 199.137,330.692 211.299,337.731 243.29,319.377 
	243.29,317.539 "/>
<polygon style="fill:#284363;" points="266.657,289.816 234.785,308.31 234.785,310.018 246.948,317.058 278.938,298.704 
	278.938,296.866 "/>
<polygon style="fill:#212938;" points="247.023,315.363 234.785,308.31 234.785,310.018 246.948,317.058 278.938,298.704 
	278.938,296.866 "/>
<polygon style="fill:#284363;" points="302.573,269.185 270.701,287.679 270.701,289.387 282.863,296.427 314.854,278.073 
	314.854,276.235 "/>
<polygon style="fill:#212938;" points="282.939,294.732 270.701,287.679 270.701,289.387 282.863,296.427 314.854,278.073 
	314.854,276.235 "/>
<polygon style="fill:#284363;" points="377.431,312.434 339.698,290.481 320.244,301.893 320.244,303.601 339.276,314.844 
	309.659,331.966 309.683,331.993 309.683,333.702 326.545,343.508 377.431,314.309 377.431,312.471 "/>
<polygon style="fill:#C8CED6;" points="261.409,417.541 353.779,364.374 395.852,388.481 303.519,441.925 "/>
<g>
	<polygon style="fill:#212938;" points="340.826,313.948 320.244,301.893 320.244,303.601 339.276,314.844 	"/>
	<polygon style="fill:#212938;" points="326.716,341.859 326.628,341.809 326.621,341.813 309.683,331.993 309.683,333.702 
		326.545,343.508 377.431,314.309 377.431,312.471 364.028,320.21 	"/>
</g>
<path style="fill:#284363;" d="M285.616,4.872l0.013-0.007l-4.464-2.584c-5.247-3.038-11.717-3.041-16.968-0.009L44.329,129.247
	c-11.102,6.41-17.941,18.255-17.941,31.074v205.648c0,6.07,3.247,11.675,8.512,14.695l255.653-147.53V13.039
	C290.552,9.346,288.472,6.384,285.616,4.872z"/>
<path style="fill:#212938;" d="M34.9,165.075c0-12.673,6.761-24.382,17.736-30.718l0.206-0.119l0,0l0,0L276.675,5.026
	c2.969-1.714,6.289-1.558,8.941-0.154l0.013-0.007l-4.464-2.584c-5.247-3.038-11.717-3.041-16.968-0.009L44.329,129.247
	c-11.102,6.41-17.941,18.255-17.941,31.074v205.648c0,6.07,3.247,11.675,8.512,14.695V165.313V165.075z"/>
<polygon style="fill:#33AEFF;" points="43.347,154.372 43.347,360.963 282.108,223.228 282.108,16.523 "/>
<g style="opacity:0.2;">
	<polygon style="fill:#FFFFFF;" points="147.622,300.809 265.351,232.894 282.108,186.238 282.108,16.523 241.255,40.109 	"/>
</g>
<g style="opacity:0.2;">
	<polygon style="fill:#FFFFFF;" points="191.534,68.816 88.492,128.307 43.347,254.003 43.347,360.963 97.911,329.486 	"/>
</g>
<path style="fill:#F43834;" d="M323.369,89.153l-40.135-74.29L43.347,154.347v50.776l40.172,23.381v23.894
	c0,14.271,15.455,23.184,27.808,16.037l0,0c12.554-7.264,20.285-20.669,20.285-35.173v-32.683l48.148-27.955v23.881
	c0,14.271,15.455,23.185,27.808,16.038c12.554-7.264,20.285-20.669,20.285-35.173v-32.669l48.171-27.969v23.821
	c0,14.271,15.455,23.184,27.807,16.037c12.554-7.264,19.575-20.212,19.575-34.716V89.131L323.369,89.153z"/>
<g>
	<path style="fill:#E3E3E3;" d="M179.736,172.57l-40.914-73.839l-48.093,27.985l40.961,73.812v23.894
		c0,14.271,15.455,23.185,27.808,16.037c12.554-7.264,20.285-20.669,20.285-35.173v-32.744L179.736,172.57z"/>
	<path style="fill:#E3E3E3;" d="M235.062,42.839l-48.069,27.916l40.937,73.881v23.894c0,14.271,15.455,23.184,27.808,16.038
		c12.554-7.264,20.285-20.669,20.285-35.173v-32.744L235.062,42.839z"/>
</g>
<path style="fill:#C40041;" d="M83.519,228.504v23.894c0,14.271,15.455,23.184,27.808,16.037l0,0
	c12.554-7.264,20.285-20.669,20.285-35.173v-32.744L83.519,228.504z"/>
<path style="fill:#C8CED6;" d="M131.691,200.528v23.894c0,14.271,15.455,23.185,27.808,16.037l0,0
	c12.554-7.264,20.285-20.669,20.285-35.173v-32.744L131.691,200.528z"/>
<g>
	<path style="fill:#C40041;" d="M179.759,172.612v23.894c0,14.271,15.455,23.185,27.808,16.038l0,0
		c12.554-7.264,20.285-20.669,20.285-35.173v-32.744L179.759,172.612z"/>
	<path style="fill:#C40041;" d="M276.024,116.659v23.894c0,14.271,15.455,23.184,27.807,16.037l0,0
		c12.554-7.264,19.575-20.212,19.575-34.716V89.131L276.024,116.659z"/>
</g>
<path style="fill:#C8CED6;" d="M227.931,144.636v23.895c0,14.271,15.455,23.184,27.808,16.037l0,0
	c12.554-7.264,20.285-20.669,20.285-35.173v-32.744L227.931,144.636z"/>
<polygon style="fill:#C40041;" points="83.519,228.504 43.347,205.123 43.347,154.347 "/>
<g>
</g>
<g>
</g>
<g>
</g>
<g>
</g>
<g>
</g>
<g>
</g>
<g>
</g>
<g>
</g>
<g>
</g>
<g>
</g>
<g>
</g>
<g>
</g>
<g>
</g>
<g>
</g>
<g>
</g>
</svg>
