<?xml version="1.0" standalone="no"?>
<!DOCTYPE svg PUBLIC "-//W3C//DTD SVG 20010904//EN"
 "http://www.w3.org/TR/2001/REC-SVG-20010904/DTD/svg10.dtd">
<svg version="1.0" xmlns="http://www.w3.org/2000/svg"
 width="512.000000pt" height="512.000000pt" viewBox="0 0 512.000000 512.000000"
 preserveAspectRatio="xMidYMid meet">

<g transform="translate(0.000000,512.000000) scale(0.100000,-0.100000)"
fill="#000000" stroke="none">
<path d="M225 4952 c-73 -46 -70 -26 -73 -406 -2 -326 -1 -342 18 -374 43 -70
128 -92 191 -49 65 43 69 64 69 330 l0 237 238 0 c265 0 286 4 329 69 39 58
27 126 -32 181 l-27 25 -341 3 c-320 2 -344 1 -372 -16z"/>
<path d="M4153 4954 c-95 -47 -97 -190 -4 -242 37 -21 51 -22 280 -22 l241 0
0 -241 c0 -262 4 -285 57 -323 42 -31 111 -32 153 -4 68 46 70 55 70 413 0
357 -2 367 -69 412 -34 23 -37 23 -365 23 -283 0 -336 -3 -363 -16z"/>
<path d="M872 4290 c-18 -4 -42 -16 -53 -26 -48 -43 -49 -53 -49 -406 0 -469
-36 -433 435 -433 469 0 435 -34 435 435 0 364 -2 374 -71 415 -32 19 -54 20
-349 22 -173 1 -330 -2 -348 -7z m486 -427 l3 -153 -156 0 -155 0 0 155 0 156
153 -3 152 -3 3 -152z"/>
<path d="M1859 4291 c-46 -15 -77 -41 -93 -82 -24 -59 -23 -465 0 -515 44 -92
158 -109 229 -34 25 26 30 40 33 95 l4 65 159 0 159 0 0 -75 c0 -124 40 -184
128 -193 59 -5 105 15 132 61 19 30 20 52 20 307 0 255 -1 277 -20 307 -27 45
-64 66 -114 66 -84 0 -146 -67 -146 -158 l0 -35 -160 0 -160 0 0 48 c0 98 -85
169 -171 143z"/>
<path d="M2972 4290 c-18 -4 -42 -16 -53 -26 -49 -44 -49 -48 -49 -481 0 -387
1 -410 20 -440 54 -90 193 -86 240 7 19 37 20 58 20 437 0 369 -1 401 -19 433
-29 56 -95 85 -159 70z"/>
<path d="M3562 4290 c-18 -4 -42 -16 -53 -26 -48 -43 -49 -53 -49 -406 0 -469
-36 -433 435 -433 469 0 435 -34 435 435 0 364 -2 375 -70 415 -33 19 -53 20
-350 22 -173 1 -330 -2 -348 -7z m486 -427 l3 -153 -156 0 -155 0 0 155 0 156
153 -3 152 -3 3 -152z"/>
<path d="M2272 3343 c-57 -28 -75 -65 -80 -164 -5 -105 7 -147 54 -189 60 -53
162 -37 204 33 17 26 20 51 20 139 0 101 -1 108 -27 139 -48 56 -111 72 -171
42z"/>
<path d="M833 3250 c-85 -51 -83 -180 4 -237 25 -17 66 -18 573 -21 482 -2
550 -1 587 13 81 31 114 119 73 192 -43 77 -11 73 -642 73 -541 0 -564 -1
-595 -20z"/>
<path d="M3435 3261 c-48 -12 -75 -30 -95 -64 -39 -63 -17 -152 47 -194 23
-15 54 -19 190 -22 l163 -3 0 -134 0 -134 -424 0 -425 0 -3 203 c-3 190 -4
204 -26 238 -22 36 -80 69 -119 69 -33 0 -99 -40 -118 -72 -18 -29 -20 -55
-23 -235 l-4 -203 -1099 0 c-953 0 -1104 -2 -1129 -15 -96 -50 -97 -195 0
-246 32 -18 62 -19 377 -19 l343 0 0 -246 c0 -230 1 -249 20 -279 51 -83 173
-85 231 -4 24 33 24 39 27 282 l3 247 615 0 614 0 0 -80 0 -80 -385 0 c-322 0
-391 -2 -415 -15 -96 -50 -96 -199 0 -247 32 -16 77 -18 505 -18 440 0 473 1
505 19 65 34 75 65 78 254 l4 167 259 0 259 0 0 -217 c0 -244 5 -268 69 -310
64 -43 156 -20 193 48 16 30 18 60 18 256 l0 223 500 0 c541 0 528 -1 579 54
34 36 40 118 13 162 -39 62 -54 64 -426 64 l-336 0 0 134 0 133 94 5 c76 4
100 9 125 27 86 61 80 189 -11 238 -30 16 -68 18 -398 20 -201 1 -378 -2 -395
-6z"/>
<path d="M4045 1951 c-67 -40 -70 -52 -73 -308 l-4 -233 -244 0 c-225 0 -248
-2 -284 -20 -93 -48 -97 -185 -7 -240 29 -18 52 -20 283 -20 l252 0 4 -94 c3
-67 9 -101 21 -120 57 -86 186 -87 237 -3 19 31 20 53 20 497 0 449 -1 466
-20 498 -36 58 -126 80 -185 43z"/>
<path d="M2901 1833 c-19 -10 -44 -31 -55 -46 -20 -27 -21 -43 -24 -343 l-3
-314 -152 0 c-172 0 -204 -9 -244 -69 -41 -61 -21 -154 41 -192 28 -17 54 -19
286 -19 232 0 258 2 286 19 63 38 64 47 64 483 0 372 -1 395 -20 425 -39 65
-117 89 -179 56z"/>
<path d="M1841 1822 c-19 -9 -44 -30 -55 -45 -20 -26 -21 -44 -24 -260 -2
-147 1 -245 7 -269 6 -20 27 -50 46 -67 29 -25 44 -31 83 -31 57 0 104 26 127
70 14 26 16 68 13 285 l-3 253 -25 27 c-52 56 -108 68 -169 37z"/>
<path d="M3263 1780 c-41 -24 -63 -67 -63 -120 0 -95 65 -140 201 -140 60 0
94 5 118 18 99 50 105 177 12 239 -30 20 -47 23 -135 23 -83 0 -107 -4 -133
-20z"/>
<path d="M850 1703 c-19 -10 -45 -33 -57 -52 -23 -34 -23 -37 -23 -370 0 -316
1 -338 20 -368 37 -62 44 -63 415 -63 377 0 374 0 414 70 20 36 21 51 21 361
0 356 -2 368 -63 413 -27 20 -43 21 -360 24 -301 2 -335 1 -367 -15z m510
-418 l0 -155 -155 0 -155 0 0 155 0 155 155 0 155 0 0 -155z"/>
<path d="M2314 1490 c-27 -11 -72 -65 -80 -96 -15 -61 23 -135 82 -160 43 -18
185 -18 227 0 75 32 110 123 73 195 -30 56 -67 71 -181 70 -55 0 -109 -4 -121
-9z"/>
<path d="M215 1020 c-64 -42 -65 -50 -65 -416 0 -466 -32 -434 433 -434 345 0
364 3 405 55 25 31 37 84 28 120 -4 14 -22 43 -41 63 l-33 37 -256 3 -256 3 0
241 c0 228 -1 242 -22 279 -37 66 -131 90 -193 49z"/>
<path d="M4733 1021 c-60 -38 -63 -54 -63 -326 l0 -245 -247 0 c-228 0 -251
-2 -280 -20 -99 -60 -76 -218 37 -251 22 -6 154 -9 357 -7 446 4 413 -30 413
431 0 343 -2 359 -54 406 -36 34 -118 40 -163 12z"/>
</g>
</svg>
