<?xml version="1.0" encoding="iso-8859-1"?>
<!-- Generator: Adobe Illustrator 19.0.0, SVG Export Plug-In . SVG Version: 6.00 Build 0)  -->
<svg version="1.1" id="Capa_1" xmlns="http://www.w3.org/2000/svg" xmlns:xlink="http://www.w3.org/1999/xlink" x="0px" y="0px"
	 viewBox="0 0 512.005 512.005" style="enable-background:new 0 0 512.005 512.005;" xml:space="preserve">
<rect x="58.187" y="209.457" style="fill:#ECEFF9;" width="395.636" height="221.091"/>
<path style="fill:#C4D7E5;" d="M407.278,395.639H267.642c-12.858,0-23.273-10.415-23.273-23.273l0,0h186.182l0,0
	C430.551,385.224,420.136,395.639,407.278,395.639z"/>
<polygon style="fill:#F26A5F;" points="53.742,104.73 30.469,151.275 481.541,151.275 458.268,104.73 "/>
<g>
	<polygon style="fill:#FFFFFF;" points="142.888,151.275 158.399,104.73 123.56,104.73 100.287,151.275 	"/>
	<polygon style="fill:#FFFFFF;" points="353.611,104.73 369.122,151.275 411.723,151.275 388.45,104.73 	"/>
	<polygon style="fill:#FFFFFF;" points="234.839,151.275 277.172,151.275 269.422,104.73 242.588,104.73 	"/>
</g>
<path style="fill:#F04B4D;" d="M23.278,191.758c15.174,8.948,37.283,7.936,50.886-3.002c4.247-3.421,10.345-3.421,14.592,0
	c14.976,12.044,40.25,12.044,55.226,0c4.247-3.421,10.345-3.421,14.592,0c14.976,12.044,40.25,12.044,55.226,0
	c4.247-3.421,10.345-3.421,14.592,0c14.976,12.044,40.25,12.044,55.226,0c4.247-3.421,10.345-3.421,14.592,0
	c14.976,12.044,40.25,12.044,55.226,0c4.247-3.421,10.345-3.421,14.592,0c14.976,12.044,40.25,12.044,55.226,0
	c2.129-1.711,4.713-2.572,7.296-2.572c2.583,0,5.167,0.861,7.296,2.572c13.603,10.95,35.724,11.951,50.886,3.002v-17.21H23.278
	V191.758z"/>
<g>
	<path style="fill:#D4E3EE;" d="M93.096,174.548v17.21c13.638,8.041,32.908,8.041,46.545,0v-17.21H93.096z"/>
	<path style="fill:#D4E3EE;" d="M232.732,174.548v17.21c13.638,8.041,32.908,8.041,46.545,0v-17.21H232.732z"/>
	<path style="fill:#D4E3EE;" d="M372.369,174.548v17.21c13.638,8.041,32.908,8.041,46.545,0v-17.21H372.369z"/>
</g>
<path style="fill:#ECEFF9;" d="M453.823,46.548c0-6.412-5.213-11.636-11.636-11.636H69.823c-6.423,0-11.636,5.225-11.636,11.636
	v34.909h395.636V46.548z"/>
<rect x="279.278" y="267.639" style="fill:#70B7E5;" width="116.364" height="93.091"/>
<g>
	<rect x="104.732" y="267.639" style="fill:#B0C4D9;" width="93.091" height="162.909"/>
	<path style="fill:#B0C4D9;" d="M488.732,465.457c0-6.412-5.213-11.636-11.636-11.636H34.914c-6.423,0-11.636,5.225-11.636,11.636
		v11.636h465.455V465.457z"/>
</g>
<g>
	<path style="fill:#014463;" d="M418.914,360.73V256.003c0-6.423-5.201-11.636-11.636-11.636H267.642
		c-6.435,0-11.636,5.213-11.636,11.636V360.73c-6.435,0-11.636,5.213-11.636,11.636s5.201,11.636,11.636,11.636h162.909
		c6.435,0,11.636-5.213,11.636-11.636S425.349,360.73,418.914,360.73z M279.278,267.639h116.364v93.091H279.278V267.639z"/>
	<circle style="fill:#014463;" cx="174.551" cy="372.366" r="11.636"/>
	<circle style="fill:#014463;" cx="349.096" cy="58.184" r="11.636"/>
	<circle style="fill:#014463;" cx="162.914" cy="58.184" r="11.636"/>
</g>
<rect x="139.642" y="302.548" style="fill:#70B7E5;" width="23.273" height="23.273"/>
<g>
	<path style="fill:#014463;" d="M174.551,349.094h-46.545c-6.435,0-11.636-5.213-11.636-11.636v-46.545
		c0-6.423,5.201-11.636,11.636-11.636h46.545c6.435,0,11.636,5.213,11.636,11.636v46.545
		C186.187,343.88,180.986,349.094,174.551,349.094z M139.642,325.821h23.273v-23.273h-23.273V325.821z"/>
	<path style="fill:#014463;" d="M314.187,69.821H197.823c-6.435,0-11.636-5.213-11.636-11.636s5.201-11.636,11.636-11.636h116.364
		c6.435,0,11.636,5.213,11.636,11.636S320.622,69.821,314.187,69.821z"/>
	<path style="fill:#014463;" d="M507.665,206.885c2.746-2.211,4.34-5.539,4.34-9.065v-34.909c0-1.78-0.407-3.561-1.222-5.201
		l-33.687-67.363V46.548c0-19.247-15.663-34.909-34.909-34.909H69.823c-19.247,0-34.909,15.663-34.909,34.909v43.799L1.227,157.71
		c-0.07,0.14-0.093,0.303-0.151,0.442c-0.105,0.244-0.163,0.489-0.256,0.745c-0.407,1.14-0.768,2.304-0.815,3.491
		c-0.012,0.175,0,0.337,0,0.524v34.909c0,3.526,1.594,6.854,4.34,9.065c8.785,7.075,19.456,11.369,30.569,13.184v210.479
		c-19.247,0-34.909,15.663-34.909,34.909v23.273c0,6.423,5.201,11.636,11.636,11.636h488.727c6.435,0,11.636-5.213,11.636-11.636
		v-23.273c0-19.247-15.663-34.909-34.909-34.909V220.198C488.22,218.382,498.879,213.96,507.665,206.885z M209.46,244.366H93.096
		c-6.435,0-11.636,5.213-11.636,11.636v174.545H58.187V220.046c8.192-1.338,16.151-3.933,23.273-8.122
		c20.957,12.335,48.861,12.335,69.818,0c20.957,12.335,48.861,12.335,69.818,0c20.957,12.335,48.861,12.335,69.818,0
		c20.957,12.335,48.861,12.335,69.818,0c20.957,12.335,48.861,12.335,69.818,0c7.133,4.189,15.081,6.842,23.273,8.18v210.444
		H221.096V256.003C221.096,249.579,215.895,244.366,209.46,244.366z M197.823,267.639v162.909h-93.091V267.639H197.823z
		 M369.122,151.275l-15.511-46.545h34.839l23.273,46.545H369.122z M418.914,174.548v11.636v5.399
		c-13.673,8.122-32.873,8.122-46.545,0v-5.399v-11.636H418.914z M302.551,174.548h46.545v17.036
		c-13.673,8.122-32.873,8.122-46.545,0V174.548z M300.77,151.275l-7.761-46.545h36.061l15.511,46.545H300.77z M279.278,174.548
		v11.636v5.399c-13.673,8.122-32.873,8.122-46.545,0v-5.399v-11.636H279.278z M234.839,151.275l7.75-46.545h26.845l7.75,46.545
		H234.839z M167.418,151.275l15.511-46.545h36.061l-7.761,46.545H167.418z M209.46,174.548v17.036
		c-13.673,8.122-32.873,8.122-46.545,0v-17.036H209.46z M123.56,104.73h34.839l-15.511,46.545h-42.601L123.56,104.73z
		 M139.642,174.548v11.636v5.399c-13.673,8.122-32.873,8.122-46.545,0v-5.399v-11.636H139.642z M414.469,104.73h43.799
		l23.273,46.545h-43.799L414.469,104.73z M58.187,46.548c0-6.412,5.213-11.636,11.636-11.636h372.364
		c6.423,0,11.636,5.225,11.636,11.636v34.909H58.187V46.548z M53.742,104.73h43.799l-23.273,46.545H30.469L53.742,104.73z
		 M23.278,191.758v-17.21h46.545v17.094C56.186,199.717,36.951,199.811,23.278,191.758z M488.732,465.457v11.636H23.278v-11.636
		c0-6.412,5.213-11.636,11.636-11.636h58.182H209.46h267.636C483.519,453.821,488.732,459.046,488.732,465.457z M442.187,191.642
		v-17.094h46.545v17.21C475.083,199.822,455.825,199.729,442.187,191.642z"/>
</g>
<path style="fill:#C4D7E5;" d="M430.551,211.924c-20.957,12.335-48.861,12.335-69.818,0c-20.957,12.335-48.861,12.335-69.818,0
	c-20.957,12.335-48.861,12.335-69.818,0c-20.957,12.335-48.861,12.335-69.818,0c-20.957,12.335-48.861,12.335-69.818,0
	c-7.121,4.189-15.081,6.784-23.273,8.122v23.121c8.192-1.292,16.151-3.852,23.273-8.041c20.957,12.323,48.861,12.323,69.818,0
	c20.957,12.323,48.861,12.323,69.818,0c20.957,12.323,48.861,12.323,69.818,0c20.957,12.323,48.861,12.323,69.818,0
	c20.957,12.323,48.861,12.323,69.818,0c7.133,4.189,15.081,6.842,23.273,8.18v-23.203
	C445.631,218.766,437.684,216.113,430.551,211.924z"/>
<g>
</g>
<g>
</g>
<g>
</g>
<g>
</g>
<g>
</g>
<g>
</g>
<g>
</g>
<g>
</g>
<g>
</g>
<g>
</g>
<g>
</g>
<g>
</g>
<g>
</g>
<g>
</g>
<g>
</g>
</svg>
