<?xml version="1.0" encoding="iso-8859-1"?>
<!-- Generator: Adobe Illustrator 19.0.0, SVG Export Plug-In . SVG Version: 6.00 Build 0)  -->
<svg version="1.1" id="Capa_1" xmlns="http://www.w3.org/2000/svg" xmlns:xlink="http://www.w3.org/1999/xlink" x="0px" y="0px"
	 viewBox="0 0 409.591 409.591" style="enable-background:new 0 0 409.591 409.591;" xml:space="preserve">
<rect y="392.769" style="fill:#3A556A;" width="409.585" height="16.809"/>
<polygon style="fill:#64798A;" points="360.889,334.555 48.711,334.555 0.009,392.794 409.591,392.794 "/>
<rect x="25.6" y="99.168" style="fill:#FCD462;" width="358.385" height="279.905"/>
<rect x="51.2" y="182.388" style="fill:#FFFFFF;" width="114.58" height="196.659"/>
<rect x="59.146" y="191.348" style="fill:#27A2DB;" width="98.693" height="187.75"/>
<rect x="192.092" y="195.802" style="fill:#FFFFFF;" width="166.779" height="113.664"/>
<g>
	<rect x="279.194" y="203.237" style="fill:#27A2DB;" width="72.243" height="45.665"/>
	<rect x="199.537" y="203.237" style="fill:#27A2DB;" width="72.243" height="45.665"/>
	<rect x="279.194" y="256.372" style="fill:#27A2DB;" width="72.243" height="45.66"/>
	<rect x="199.537" y="256.372" style="fill:#27A2DB;" width="72.243" height="45.66"/>
</g>
<rect x="25.6" y="99.168" style="opacity:0.15;enable-background:new    ;" width="358.385" height="119.68"/>
<path style="fill:#D5D6DB;" d="M0.009,115.297v25.599c0,14.138,11.461,25.599,25.599,25.599c14.138,0,25.599-11.461,25.599-25.599
	v-25.599H0.009z"/>
<path style="fill:#CE412D;" d="M51.207,115.297v25.599c0,14.138,11.461,25.599,25.599,25.599c14.138,0,25.599-11.461,25.599-25.599
	v-25.599H51.207z"/>
<path style="fill:#D5D6DB;" d="M102.404,115.297v25.599c0,14.138,11.461,25.599,25.599,25.599c14.138,0,25.599-11.461,25.599-25.599
	v-25.599H102.404z"/>
<path style="fill:#CE412D;" d="M153.602,115.297v25.599c0,14.138,11.461,25.599,25.599,25.599c14.138,0,25.599-11.461,25.599-25.599
	v-25.599H153.602z"/>
<path style="fill:#D5D6DB;" d="M204.8,115.297v25.599c0,14.138,11.461,25.599,25.599,25.599c14.138,0,25.599-11.461,25.599-25.599
	v-25.599H204.8z"/>
<path style="fill:#CE412D;" d="M255.998,115.297v25.599c0,14.138,11.461,25.599,25.599,25.599c14.138,0,25.599-11.461,25.599-25.599
	v-25.599H255.998z"/>
<path style="fill:#D5D6DB;" d="M307.196,115.297v25.599c0,14.138,11.461,25.599,25.599,25.599c14.138,0,25.599-11.461,25.599-25.599
	v-25.599H307.196z"/>
<path style="fill:#CE412D;" d="M358.393,115.297v25.599c0,14.138,11.461,25.599,25.599,25.599c14.138,0,25.599-11.461,25.599-25.599
	v-25.599H358.393z"/>
<polygon style="fill:#EBF0F3;" points="86.211,51.798 46.681,51.798 0.009,115.297 51.207,115.297 "/>
<polygon style="fill:#E56353;" points="125.741,51.798 86.211,51.798 51.207,115.297 102.404,115.297 "/>
<polygon style="fill:#EBF0F3;" points="165.27,51.798 125.741,51.798 102.404,115.297 153.602,115.297 "/>
<polygon style="fill:#E56353;" points="204.8,51.798 165.27,51.798 153.602,115.297 204.8,115.297 "/>
<polygon style="fill:#EBF0F3;" points="244.33,51.798 204.8,51.798 204.8,115.297 255.998,115.297 "/>
<polygon style="fill:#E56353;" points="283.859,51.798 244.33,51.798 255.998,115.297 307.196,115.297 "/>
<polygon style="fill:#EBF0F3;" points="323.389,51.798 283.859,51.798 307.196,115.297 358.393,115.297 "/>
<polygon style="fill:#E56353;" points="362.919,51.798 323.389,51.798 358.393,115.297 409.591,115.297 "/>
<rect x="46.438" y="0.014" style="fill:#3A556A;" width="316.488" height="51.773"/>
<rect x="53.862" y="7.448" style="fill:#64798A;" width="301.594" height="36.884"/>
<g>
</g>
<g>
</g>
<g>
</g>
<g>
</g>
<g>
</g>
<g>
</g>
<g>
</g>
<g>
</g>
<g>
</g>
<g>
</g>
<g>
</g>
<g>
</g>
<g>
</g>
<g>
</g>
<g>
</g>
</svg>
